<?xml version="1.0" standalone="no"?>
<!DOCTYPE svg PUBLIC "-//W3C//DTD SVG 20010904//EN"
 "http://www.w3.org/TR/2001/REC-SVG-20010904/DTD/svg10.dtd">
<svg version="1.0" xmlns="http://www.w3.org/2000/svg"
 width="1200.000000pt" height="900.000000pt" viewBox="0 0 1200.000000 900.000000"
 preserveAspectRatio="xMidYMid meet">
<metadata>
Created by potrace 1.15, written by Peter Selinger 2001-2017
</metadata>
<g transform="translate(0.000000,900.000000) scale(0.100000,-0.100000)"
fill="#000000" stroke="none">
<path d="M1870 7772 c0 -5 48 -148 106 -318 58 -170 139 -406 179 -524 40
-118 126 -368 190 -555 64 -187 170 -495 235 -685 65 -190 173 -505 240 -700
67 -195 152 -445 190 -555 37 -110 94 -275 126 -368 l58 -167 639 2 640 3 73
220 c40 121 158 481 262 800 177 540 385 1173 717 2188 75 229 141 417 146
417 5 0 9 -748 9 -1815 l0 -1815 580 0 580 0 0 1940 0 1940 -1061 -2 -1062 -3
-22 -75 c-30 -98 -147 -483 -192 -630 -20 -63 -46 -149 -58 -190 -13 -41 -46
-151 -75 -245 -29 -93 -62 -204 -75 -245 -12 -41 -66 -219 -120 -395 -54 -176
-110 -363 -126 -415 -16 -52 -42 -138 -58 -190 -16 -52 -33 -94 -37 -93 -5 1
-13 16 -18 35 -5 18 -35 114 -67 213 -31 99 -103 329 -159 510 -240 783 -295
960 -400 1305 -61 201 -115 376 -119 390 l-8 25 -656 3 c-361 1 -657 -2 -657
-6z"/>
<path d="M7100 5840 l0 -1940 610 0 610 0 0 730 0 730 670 0 670 0 0 430 0
430 -670 0 -670 0 0 325 0 325 870 0 870 0 0 455 0 455 -1480 0 -1480 0 0
-1940z"/>
<path d="M5388 5835 c-45 -108 -129 -386 -123 -406 5 -14 4 -19 -4 -15 -11 7
-15 -5 -11 -38 1 -10 -3 -15 -8 -12 -5 3 -30 -59 -56 -142 -26 -81 -51 -156
-56 -167 -5 -11 -38 -110 -73 -220 -36 -110 -136 -415 -222 -678 -86 -263
-154 -485 -151 -493 3 -8 2 -13 -3 -9 -5 3 -11 0 -13 -7 -3 -9 -121 -13 -500
-14 -273 -1 -501 -5 -507 -8 -6 -4 -11 -3 -11 3 0 7 -103 9 -302 7 -167 -2
-312 -2 -324 1 -20 4 -58 91 -103 238 -11 33 -42 125 -69 205 -28 80 -87 253
-132 385 -45 132 -87 254 -94 270 -7 17 -21 57 -31 90 -35 120 -15 118 -220
14 -99 -50 -187 -96 -195 -103 -8 -6 -45 -27 -83 -46 -46 -24 -69 -42 -73 -58
-5 -16 -10 -20 -18 -12 -21 16 -211 -116 -374 -259 -302 -266 -374 -593 -201
-908 50 -90 145 -213 165 -213 8 0 13 -4 10 -9 -3 -5 29 -45 71 -90 49 -52 79
-77 84 -70 4 7 15 9 24 5 13 -5 15 -9 6 -20 -9 -10 -1 -22 35 -55 26 -23 53
-40 60 -37 8 3 11 0 8 -8 -9 -23 301 -253 566 -418 109 -68 131 -81 240 -142
36 -20 72 -40 80 -46 37 -23 367 -183 475 -230 256 -111 561 -220 616 -220 16
0 29 -4 29 -9 0 -23 468 -122 652 -137 35 -3 110 -9 168 -14 58 -5 176 -9 262
-9 139 -1 158 1 167 17 9 14 12 15 20 3 7 -11 29 -12 111 -7 140 10 418 52
434 65 7 6 16 8 19 4 9 -9 351 67 365 82 4 3 0 10 -7 14 -9 6 -10 11 -2 15 6
4 14 0 17 -8 3 -9 12 -16 18 -16 20 0 356 106 411 130 11 4 38 13 60 18 22 6
58 17 80 26 94 35 247 90 340 123 55 19 119 43 142 54 23 10 46 19 50 19 8 0
154 54 188 70 11 5 40 17 65 25 87 31 181 67 325 125 137 55 155 64 155 73 0
4 4 6 9 2 5 -3 56 13 113 36 194 77 233 92 273 110 22 9 85 36 140 59 55 23
102 45 105 49 3 3 14 8 25 9 11 2 48 17 82 33 34 16 65 29 69 29 3 0 22 7 42
17 124 55 162 75 162 83 0 6 10 9 23 8 12 -1 49 11 82 27 33 15 88 41 123 56
34 16 65 36 69 44 4 11 13 15 26 11 11 -3 32 1 46 9 14 8 98 49 186 90 88 42
234 115 323 163 90 48 176 93 190 101 52 27 263 170 322 218 32 26 57 53 55
60 -2 7 2 10 9 7 18 -7 106 97 142 166 25 49 28 66 28 153 1 54 -3 101 -9 105
-5 4 -11 21 -12 39 -5 84 -147 284 -278 393 -17 13 -55 45 -85 70 -63 54 -211
157 -237 167 -10 4 -36 18 -58 32 -60 38 -89 54 -215 118 l-115 58 -497 3
-496 3 -1 -723 0 -723 -48 -6 c-26 -3 -739 -5 -1583 -5 l-1535 1 -5 1120 c-5
1056 -6 1117 -22 1080z"/>
</g>
</svg>
